name Walk1.mot
datacolumns 19
datarows 25
range 1.63500000 1.75500000
endheader

                time	   L_ground_force_vx	   L_ground_force_vy	   L_ground_force_vz	   L_ground_force_px	   L_ground_force_py	   L_ground_force_pz	   R_ground_force_vx	   R_ground_force_vy	   R_ground_force_vz	   R_ground_force_px	   R_ground_force_py	   R_ground_force_pz	   L_ground_torque_x	   L_ground_torque_y	   L_ground_torque_z	   R_ground_torque_x	   R_ground_torque_y	   R_ground_torque_z	
          1.63500000	         25.59193484	        951.10397181	         72.05745014	         -0.21383931	          0.00000000	         -0.06606228	         -0.00683647	          0.20806560	          0.01559602	          0.00014320	          0.00000000	          0.00011641	          0.00000000	          0.95026169	          0.00000000	          0.00000000	          0.00192889	          0.00000000	
          1.64000000	         27.10109073	        955.38141599	         73.25741177	         -0.21203338	          0.00000000	         -0.06653710	         -0.01239685	          0.28186605	          0.01914400	          0.00017884	          0.00000000	          0.00014409	          0.00000000	          1.06244682	          0.00000000	          0.00000000	          0.00323909	          0.00000000	
          1.64500000	         28.66797904	        959.22848884	         74.43679074	         -0.21020780	          0.00000000	         -0.06702238	         -0.01953872	          0.36218698	          0.02231567	          0.00021237	          0.00000000	          0.00016948	          0.00000000	          1.17130797	          0.00000000	          0.00000000	          0.00488272	          0.00000000	
          1.65000000	         30.29995868	        962.63759554	         75.58255585	         -0.20836700	          0.00000000	         -0.06751302	         -0.02826593	          0.44276997	          0.02450934	          0.00023846	          0.00000000	          0.00018817	          0.00000000	          1.27398803	          0.00000000	          0.00000000	          0.00684358	          0.00000000	
          1.65500000	         31.99944786	        965.61117233	         76.68140134	         -0.20651459	          0.00000000	         -0.06800279	         -0.03838897	          0.51382349	          0.02490743	          0.00024973	          0.00000000	          0.00019412	          0.00000000	          1.36806558	          0.00000000	          0.00000000	          0.00905731	          0.00000000	
          1.66000000	         33.76527282	        968.16589182	         77.71778808	         -0.20465402	          0.00000000	         -0.06848341	         -0.04944021	          0.56125403	          0.02245641	          0.00023651	          0.00000000	          0.00017944	          0.00000000	          1.45157119	          0.00000000	          0.00000000	          0.01139234	          0.00000000	
          1.66500000	         35.59391374	        970.33646649	         78.67451587	         -0.20278992	          0.00000000	         -0.06894490	         -0.06057592	          0.56599788	          0.01586483	          0.00018673	          0.00000000	          0.00013444	          0.00000000	          1.52301237	          0.00000000	          0.00000000	          0.01362853	          0.00000000	
          1.67000000	         37.48121030	        972.18010964	         79.53355127	         -0.20092867	          0.00000000	         -0.06937649	         -0.07047001	          0.50359191	          0.00362948	          0.00008607	          0.00000000	          0.00004767	          0.00000000	          1.58147420	          0.00000000	          0.00000000	          0.01543483	          0.00000000	
          1.67500000	         39.42509054	        973.77784939	         80.27672489	         -0.19907931	          0.00000000	         -0.06976862	         -0.07720772	          0.34417028	         -0.01589770	         -0.00008152	          0.00000000	         -0.00009351	          0.00000000	          1.62683765	          0.00000000	          0.00000000	          0.01634798	          0.00000000	
          1.68000000	         41.43036940	        975.22718113	         80.88786944	         -0.19725402	          0.00000000	         -0.07011409	         -0.07819248	          0.05312557	         -0.04438735	         -0.00033279	          0.00000000	         -0.00030213	          0.00000000	          1.65929950	          0.00000000	          0.00000000	          0.01575577	          0.00000000	
          1.68500000	         43.50840778	        976.62542392	         81.35596205	         -0.19546764	          0.00000000	         -0.07040829	         -0.07008478	         -0.40727553	         -0.08333932	         -0.00068358	          0.00000000	         -0.00059019	          0.00000000	          1.67977945	          0.00000000	          0.00000000	          0.01288915	          0.00000000	
          1.69000000	         45.67650812	        978.05914536	         81.67833756	         -0.19373699	          0.00000000	         -0.07064937	         -0.04879837	         -1.07498714	         -0.13380216	         -0.00114628	          0.00000000	         -0.00096659	          0.00000000	          1.68999852	          0.00000000	          0.00000000	          0.00682942	          0.00000000	
          1.69500000	         47.95732887	        979.59654237	         81.86223070	         -0.19207948	          0.00000000	         -0.07083866	         -0.00958656	         -1.98362699	         -0.19599132	         -0.00172645	          0.00000000	         -0.00143434	          0.00000000	          1.69222903	          0.00000000	          0.00000000	         -0.00346226	          0.00000000	
          1.70000000	         50.37776587	        981.27955412	         81.92449465	         -0.19051157	          0.00000000	         -0.07098067	          0.05274183	         -3.15590462	         -0.26879660	         -0.00241823	          0.00000000	         -0.00198684	          0.00000000	          1.68881052	          0.00000000	          0.00000000	         -0.01908391	          0.00000000	
          1.70500000	         52.96564108	        983.11710204	         81.89089367	         -0.18904694	          0.00000000	         -0.07108130	          0.14343091	         -4.59471891	         -0.34917752	         -0.00319874	          0.00000000	         -0.00260337	          0.00000000	          1.68200225	          0.00000000	          0.00000000	         -0.04109041	          0.00000000	
          1.71000000	         55.74625664	        985.08348823	         81.79204251	         -0.18769465	          0.00000000	         -0.07114662	          0.26716056	         -6.27171886	         -0.43145849	         -0.00402136	          0.00000000	         -0.00324371	          0.00000000	          1.67399115	          0.00000000	          0.00000000	         -0.07033929	          0.00000000	
          1.71500000	         58.73988551	        987.12370853	         81.65781301	         -0.18645898	          0.00000000	         -0.07118294	          0.42715366	         -8.11331952	         -0.50655483	         -0.00480818	          0.00000000	         -0.00384219	          0.00000000	          1.66646593	          0.00000000	          0.00000000	         -0.10727460	          0.00000000	
          1.72000000	         61.96116982	        989.16276698	         81.51341685	         -0.18534027	          0.00000000	         -0.07119544	          0.62396362	         -9.98447409	         -0.56118610	         -0.00544216	          0.00000000	         -0.00430161	          0.00000000	          1.66012122	          0.00000000	          0.00000000	         -0.15164080	          0.00000000	
          1.72500000	         65.41645201	        991.11286679	         81.37771368	         -0.18433519	          0.00000000	         -0.07118791	          0.85391285	        -11.67094855	         -0.57716698	         -0.00575960	          0.00000000	         -0.00448750	          0.00000000	          1.65474499	          0.00000000	          0.00000000	         -0.20212299	          0.00000000	
          1.73000000	         69.10266491	        992.87788651	         81.26253575	         -0.18343732	          0.00000000	         -0.07116302	          1.10717957	        -12.86144692	         -0.53090636	         -0.00554429	          0.00000000	         -0.00422394	          0.00000000	          1.64930208	          0.00000000	          0.00000000	         -0.25591644	          0.00000000	
          1.73500000	         73.00805351	        994.36122851	         81.17345609	         -0.18263850	          0.00000000	         -0.07112277	          1.36557222	        -13.13170837	         -0.39329281	         -0.00452477	          0.00000000	         -0.00329202	          0.00000000	          1.64224005	          0.00000000	          0.00000000	         -0.30823918	          0.00000000	
          1.74000000	         77.11425628	        995.47150053	         81.10949158	         -0.18192942	          0.00000000	         -0.07106868	          1.60009109	        -11.93364021	         -0.13019700	         -0.00237693	          0.00000000	         -0.00143281	          0.00000000	          1.63216949	          0.00000000	          0.00000000	         -0.35181565	          0.00000000	
          1.74500000	         81.39584449	        996.12066947	         81.06356086	         -0.18129998	          0.00000000	         -0.07100248	          1.76845888	         -8.59364409	          0.29612622	          0.00126552	          0.00000000	          0.00164312	          0.00000000	          1.61865476	          0.00000000	          0.00000000	         -0.37637917	          0.00000000	
          1.75000000	         85.82024929	        996.22238198	         81.02395076	         -0.18073970	          0.00000000	         -0.07092654	          1.81290756	         -2.32548428	          0.92440533	          0.00678941	          0.00000000	          0.00623701	          0.00000000	          1.60242255	          0.00000000	          0.00000000	         -0.36826490	          0.00000000	
          1.75500000	         90.34747192	        995.68914572	         80.97590699	         -0.18023802	          0.00000000	         -0.07084375	          1.65863753	          7.73575446	          1.79012588	          0.01456592	          0.00000000	          0.01263144	          0.00000000	          1.58507066	          0.00000000	          0.00000000	         -0.31019426	          0.00000000	
